# xmcd
#
# Track frame offsets: 
#        150
#        39286
#        78958
#        100305
#        127792
#        163366
#        202719
#        230293
#        268295
#        288269
#
# Disc length: 4291 seconds
#
# Revision: 1
# Processed by: cddbd v1.5.2PL0 Copyright (c) Steve Scherf et al.
# Submitted via: ExactAudioCopyFreeDBPlugin 1.0
#
DISCID=7c10c10a
DTITLE=Popa Chubby - Wild Live!
DYEAR=2005
DGENRE=Blues - Rock
TTITLE0=Un-American Blues
TTITLE1=I can't see the light of the day
TTITLE2=Top ten reasons why i can't sleep at night
TTITLE3=Young men
TTITLE4=Live is a beatdown
TTITLE5=Dirty lie
TTITLE6=If the diesel don't get you then the jet fuel will
TTITLE7=Backdoor man
TTITLE8=Keep on the sunny side of life
TTITLE9=Hallelujah
EXTD=
EXTT0=
EXTT1=
EXTT2=
EXTT3=
EXTT4=
EXTT5=
EXTT6=
EXTT7=
EXTT8=
EXTT9=
PLAYORDER=
